<svg xmlns="http://www.w3.org/2000/svg" width="151.339" height="141.308" viewBox="0 0 151.339 141.308">
  <g id="Group_167" data-name="Group 167" transform="translate(-706 -545.692)">
    <g id="Ellipse_40" data-name="Ellipse 40" transform="translate(706 557)" fill="none" stroke="#707070" stroke-width="1">
      <circle cx="65" cy="65" r="65" stroke="none"/>
      <circle cx="65" cy="65" r="64.5" fill="none"/>
    </g>
    <g id="Ellipse_41" data-name="Ellipse 41" transform="translate(721 572)" fill="none" stroke="#707070" stroke-width="1">
      <circle cx="50" cy="50" r="50" stroke="none"/>
      <circle cx="50" cy="50" r="49.5" fill="none"/>
    </g>
    <g id="Ellipse_42" data-name="Ellipse 42" transform="translate(736 587)" fill="none" stroke="#707070" stroke-width="1">
      <circle cx="35" cy="35" r="35" stroke="none"/>
      <circle cx="35" cy="35" r="34.5" fill="none"/>
    </g>
    <g id="Ellipse_43" data-name="Ellipse 43" transform="translate(751 602)" fill="none" stroke="#707070" stroke-width="1">
      <circle cx="20" cy="20" r="20" stroke="none"/>
      <circle cx="20" cy="20" r="19.5" fill="none"/>
    </g>
    <g id="Ellipse_44" data-name="Ellipse 44" transform="translate(766 617)" fill="none" stroke="#707070" stroke-width="1">
      <circle cx="5" cy="5" r="5" stroke="none"/>
      <circle cx="5" cy="5" r="4.5" fill="none"/>
    </g>
    <g id="Group_166" data-name="Group 166" transform="translate(658.945 -492.741) rotate(49)">
      <line id="Line_40" data-name="Line 40" y2="85" transform="translate(914.5 547.5)" fill="none" stroke="#707070" stroke-width="1"/>
      <path id="Polygon_8" data-name="Polygon 8" d="M4.5,0,9,15H0Z" transform="translate(919 647) rotate(180)" fill="#707070"/>
      <path id="Union_8" data-name="Union 8" d="M1110-3953.352V-3970l4.5,11.349L1119-3970v16.648h0L1114.5-3942Z" transform="translate(-200 4506)" fill="#707070"/>
    </g>
  </g>
</svg>
