<svg xmlns="http://www.w3.org/2000/svg" viewBox="0 0 595.28 72.82"><defs><style>.cls-1{fill:#cbded1;}.cls-2{fill:#f0f0f0;}</style></defs><title>Middel 6</title><g id="Laag_2" data-name="Laag 2"><g id="Laag_1-2" data-name="Laag 1"><rect class="cls-1" width="595.28" height="72.82"/><path class="cls-2" d="M442.74,4.91c1.9,1.56,1.79-.67,2.43-1.43.27-1.17.57-2.33.87-3.48h-4.69C441.87,1.62,442.34,3.25,442.74,4.91Z"/><path class="cls-2" d="M438.81,51.22A64,64,0,0,0,462,68.7c2.65,1.29,5.25,2.67,7.8,4.12h8.56c-5-10.73-5.22-23.46-8-36.41,10.34,10.35,13.45,23.94,18,36.41h5.35c-.77-1.77-1.55-3.57-2.37-5.4a65.77,65.77,0,0,1,7,5.4h96.93V0h-140c-2.63,9.88-5.33,19.63-5,30C440.76,20.13,434.13,10.31,430.47,0H0V72.82H451.38C445.21,66.48,440.6,59,438.81,51.22ZM427.47,9.47C435.19,26,449.63,35.16,458.34,50c-5.59-14.78-1.86-28.87,1.65-44.6,6.84,20.58,3,41.5,10.83,60.69C446,57.35,426.31,32,427.47,9.47Z"/></g></g></svg>