<svg xmlns="http://www.w3.org/2000/svg" viewBox="0 0 595.28 123.71"><defs><style>.cls-1{fill:#cbded1;}.cls-2{fill:#f0f0f0;}</style></defs><title>Middel 5</title><g id="Laag_2" data-name="Laag 2"><g id="Laag_1-2" data-name="Laag 1"><rect class="cls-1" width="595.28" height="123.71"/><path class="cls-2" d="M211.05,0c5.61,5.57,10.32,12,12.2,20.85A129.61,129.61,0,0,1,223.12,0Z"/><path class="cls-2" d="M233.84,0c-.39,10.18-3.29,22.93-10,39.48C218.83,24,207.2,13.55,200.5,0H0V123.71H177c4-11.69,7.77-23.45,16.69-32.74-2,18.07-2.84,25.36-5.57,32.74H208c7.86-4.2,15.37-9,21.25-16.5a72.38,72.38,0,0,1-8.6,16.5H595.28V0Zm-39,122.82c8-20.94,3.19-44.08,11.16-66.91,2.65,16.79,7.37,31.36,3.07,47.11,9.41-15.37,25.66-24.44,32.78-41.6C241.3,94.19,218.57,108.78,194.85,122.82Zm21.62-39.29c1-22.24-11.58-41.29-10.46-63.14,7,13.24,18.18,24.52,17,41.67,3.29-17.53,14.78-32.09,15.4-50.89C247.49,34.32,239.1,61.37,216.47,83.53Z"/></g></g></svg>