<svg xmlns="http://www.w3.org/2000/svg" width="34.934" height="30.098" viewBox="0 0 34.934 30.098">
  <g id="Middel_2" data-name="Middel 2" transform="translate(-0.001)">
    <g id="Laag_1" data-name="Laag 1" transform="translate(0.001)">
      <path id="Path_47" data-name="Path 47" d="M35.948,91.177a15.18,15.18,0,0,1,3.27,2.391c.193.2.608.346.242.772-.328.383-.562.2-.833-.1a14.773,14.773,0,0,0-2.91-2.593.991.991,0,0,0-1.239,0,12.407,12.407,0,0,0-2.9,2.593c-.248.314-.421.533-.786.147s0-.576.181-.781a16.864,16.864,0,0,1,3.342-2.486,2.033,2.033,0,0,0-1.945.4c-.625.4-1.207.887-1.835,1.279A4.627,4.627,0,0,1,24.69,92.1a12.793,12.793,0,0,0,1.365.308,5.367,5.367,0,0,0,3.045-.536,7.958,7.958,0,0,1,4.684-1.219,9.794,9.794,0,0,0,2.662,0,6.312,6.312,0,0,1,3.687.7,6.5,6.5,0,0,0,5.064.818,4.016,4.016,0,0,1-3.457,1.285,7.629,7.629,0,0,1-3.71-1.812A1.961,1.961,0,0,0,35.948,91.177Z" transform="translate(-17.578 -64.5)" fill="#0d8136"/>
      <path id="Path_48" data-name="Path 48" d="M94.9,63c-.343,3.232-.38,3.362-1.44,5.419,1.654-1.4,3.9-1.783,5.3-3.613C97.509,68.229,94.9,69.447,91.6,69.77,93.219,67.768,93.107,64.913,94.9,63Z" transform="translate(-65.212 -44.851)" fill="#0d8136"/>
      <path id="Path_49" data-name="Path 49" d="M10.532,69.312C8.98,67.829,9.1,65.76,8.645,63.64c1.9,1.9,1.766,4.713,3.33,6.557-2.774.5-6.467-1.959-7.116-4.779a7.686,7.686,0,0,0,2.783,2.1A16.513,16.513,0,0,1,10.532,69.312Z" transform="translate(-3.46 -45.306)" fill="#0d8136"/>
      <path id="Path_50" data-name="Path 50" d="M103.51,56.908c.864-2.328.346-4.9,1.21-7.438.288,1.867.8,3.486.334,5.237,1.02-1.708,2.783-2.717,3.555-4.624C108.549,53.725,106.083,55.347,103.51,56.908Z" transform="translate(-73.691 -35.218)" fill="#0d8136"/>
      <path id="Path_51" data-name="Path 51" d="M4.022,50.7c.821,2.472.36,4.984,1.3,7.289C2.337,56.943-.023,53.9.116,51.193c.928,1.985,2.662,3.085,3.708,4.863C3.152,54.281,3.6,52.59,4.022,50.7Z" transform="translate(-0.079 -36.094)" fill="#0d8136"/>
      <path id="Path_52" data-name="Path 52" d="M23.329,80.512c-3.656,1.458-6.64,1.631-8.789-1.4,2.083,1.282,4.269.864,6.355,1.27-1.59-.637-2.1-2.152-2.838-3.806C20,77.853,21.033,80.043,23.329,80.512Z" transform="translate(-10.352 -54.518)" fill="#0d8136"/>
      <path id="Path_53" data-name="Path 53" d="M78.545,79.956c2.071-.5,4.321-.052,6.315-1.325-1.069,2.423-3.808,2.9-8.72,1.518a6.217,6.217,0,0,0,2.815-1.729c.712-.8,1.489-1.53,2.3-2.371A4.978,4.978,0,0,1,78.545,79.956Z" transform="translate(-54.206 -54.141)" fill="#0d8136"/>
      <path id="Path_54" data-name="Path 54" d="M111.206,32.21c.985,2.573.075,5.58-2.38,8.043.107-2.472-1.256-4.589-1.135-7.018.758,1.472,1.973,2.725,1.844,4.632C109.892,35.918,111.139,34.3,111.206,32.21Z" transform="translate(-76.662 -22.931)" fill="#0d8136"/>
      <path id="Path_55" data-name="Path 55" d="M2.164,38.178A12.151,12.151,0,0,1,3.922,34.1c.133,2.593-1.227,4.788-1.152,7.257C.4,38.895-.5,36.438.272,33.43c.259,1.835,1.2,3.273,1.6,4.92C2.1,38.538,2.087,38.27,2.164,38.178Z" transform="translate(-0.001 -23.799)" fill="#0d8136"/>
      <path id="Path_56" data-name="Path 56" d="M107.056,23.446c-.608-1.936-2.135-3.169-2.777-4.981a3.489,3.489,0,0,1-.2-.864c1.152,1.092,2.544,1.968,2.918,3.774-.2-1.95.245-3.872.032-5.894C108.119,16.918,108.871,18.888,107.056,23.446Z" transform="translate(-74.097 -11.02)" fill="#0d8136"/>
      <path id="Path_57" data-name="Path 57" d="M3.969,24.992C3,22.376,2.019,19.89,3.716,17.3c-.043,1.746.435,3.457.326,5.237.539-1.53,1.705-2.443,2.843-3.644C6.51,21.391,4.638,22.8,3.969,24.992Z" transform="translate(-1.988 -12.316)" fill="#0d8136"/>
      <path id="Path_58" data-name="Path 58" d="M100.714,6c1.809.89,2.385,2.881,1.867,5.975-2.276-1.593-3.54-3.074-3.771-4.454.553.441,1.072.879,1.616,1.279a16.534,16.534,0,0,1,1.489,1.34A15.74,15.74,0,0,0,100.714,6Z" transform="translate(-70.345 -4.271)" fill="#0d8136"/>
      <path id="Path_59" data-name="Path 59" d="M8.514,12.832c-.611-3.255-.1-5.131,1.754-6.2-.781,1.458-.812,3-1.256,4.457.8-1.357,2.256-1.875,3.215-3.016C11.812,10.378,9.732,11.179,8.514,12.832Z" transform="translate(-5.887 -4.72)" fill="#0d8036"/>
      <path id="Path_60" data-name="Path 60" d="M96.98,4.192C95.375,3.169,94.5,1.44,93.33,0,95.116.06,96.868,2.048,96.98,4.192Z" transform="translate(-66.444)" fill="#0d8036"/>
      <path id="Path_61" data-name="Path 61" d="M14.7,4.763A4.462,4.462,0,0,1,18.082.56,12.023,12.023,0,0,1,14.7,4.763Z" transform="translate(-10.466 -0.399)" fill="#0d8036"/>
    </g>
  </g>
</svg>
