<svg xmlns="http://www.w3.org/2000/svg" viewBox="0 0 150 129.22"><defs><style>.cls-1{fill:#fff;}</style></defs><g id="Laag_2" data-name="Laag 2"><g id="Laag_1-2" data-name="Laag 1"><g id="Middel_2" data-name="Middel 2"><g id="Laag_1-3" data-name="Laag 1"><path id="Path_47" data-name="Path 47" class="cls-1" d="M78.87,114.55a65.25,65.25,0,0,1,14,10.27c.82.85,2.61,1.48,1,3.31-1.4,1.64-2.41.86-3.57-.43a63.34,63.34,0,0,0-12.5-11.13,4.24,4.24,0,0,0-5.32,0A53.26,53.26,0,0,0,60.11,127.7c-1.07,1.35-1.81,2.29-3.38.63s0-2.47.78-3.35A73,73,0,0,1,71.86,114.3,8.77,8.77,0,0,0,63.51,116c-2.68,1.72-5.18,3.81-7.88,5.49a19.87,19.87,0,0,1-25.1-3,53.88,53.88,0,0,0,5.86,1.32,22.94,22.94,0,0,0,13.08-2.3,34.15,34.15,0,0,1,20.11-5.23,42.07,42.07,0,0,0,11.43,0,27.09,27.09,0,0,1,15.83,3,27.9,27.9,0,0,0,21.75,3.52,17.26,17.26,0,0,1-14.85,5.51,32.79,32.79,0,0,1-15.93-7.78A8.43,8.43,0,0,0,78.87,114.55Z"/><path id="Path_48" data-name="Path 48" class="cls-1" d="M127.47,77.93c-1.47,13.88-1.63,14.44-6.18,23.27,7.1-6,16.75-7.66,22.76-15.52-5.37,14.7-16.58,19.93-30.75,21.32C120.25,98.4,119.77,86.14,127.47,77.93Z"/><path id="Path_49" data-name="Path 49" class="cls-1" d="M30.36,103.08c-6.66-6.37-6.15-15.25-8.1-24.36,8.16,8.16,7.58,20.24,14.3,28.16C24.65,109,8.79,98.47,6,86.36a33,33,0,0,0,12,9A70.57,70.57,0,0,1,30.36,103.08Z"/><path id="Path_50" data-name="Path 50" class="cls-1" d="M128,93.13c3.71-10,1.48-21,5.19-31.93,1.24,8,3.44,15,1.43,22.48,4.38-7.33,12-11.66,15.27-19.85C149.67,79.47,139.08,86.43,128,93.13Z"/><path id="Path_51" data-name="Path 51" class="cls-1" d="M16.93,62.72c3.52,10.61,1.54,21.4,5.58,31.3C9.69,89.52-.44,76.46.15,64.83c4,8.53,11.43,13.25,15.93,20.88C13.19,78.09,15.11,70.83,16.93,62.72Z"/><path id="Path_52" data-name="Path 52" class="cls-1" d="M55.72,111.62c-15.7,6.26-28.51,7-37.74-6,8.94,5.51,18.33,3.71,27.29,5.46-6.83-2.74-9-9.24-12.19-16.35C41.42,100.2,45.86,109.6,55.72,111.62Z"/><path id="Path_53" data-name="Path 53" class="cls-1" d="M104.5,110.85c8.9-2.15,18.56-.23,27.12-5.69-4.59,10.4-16.35,12.45-37.44,6.52a26.76,26.76,0,0,0,12.09-7.43c3-3.43,6.39-6.57,9.87-10.18A21.36,21.36,0,0,1,104.5,110.85Z"/><path id="Path_54" data-name="Path 54" class="cls-1" d="M148.32,39.84c4.23,11,.33,24-10.22,34.54.46-10.62-5.39-19.71-4.87-30.14,3.26,6.33,8.47,11.71,7.92,19.89C142.68,55.76,148,48.82,148.32,39.84Z"/><path id="Path_55" data-name="Path 55" class="cls-1" d="M9.28,61.74a52.27,52.27,0,0,1,7.55-17.51c.57,11.14-5.27,20.56-4.95,31.16-10.17-10.57-14-21.12-10.72-34C2.27,49.23,6.31,55.41,8,62.48,9,63.29,9,62.14,9.28,61.74Z"/><path id="Path_56" data-name="Path 56" class="cls-1" d="M141.52,53.36C138.91,45,132.35,39.75,129.59,32a14.8,14.8,0,0,1-.85-3.71c4.94,4.69,10.92,8.45,12.52,16.2-.85-8.37,1.06-16.62.14-25.3C146.08,25.33,149.31,33.78,141.52,53.36Z"/><path id="Path_57" data-name="Path 57" class="cls-1" d="M8.5,54.43C4.34,43.2.13,32.52,7.42,21.4c-.19,7.5,1.86,14.84,1.39,22.49C11.13,37.32,16.14,33.4,21,28.24,19.41,39,11.37,45,8.5,54.43Z"/><path id="Path_58" data-name="Path 58" class="cls-1" d="M130.4,7.42c7.76,3.83,10.24,12.37,8,25.66-9.77-6.84-15.2-13.2-16.19-19.12,2.38,1.89,4.6,3.77,6.94,5.49a69.68,69.68,0,0,1,6.39,5.75A67.76,67.76,0,0,0,130.4,7.42Z"/><path id="Path_59" data-name="Path 59" class="cls-1" d="M11.28,34.83c-2.63-14-.43-22,7.53-26.62-3.36,6.26-3.49,12.88-5.4,19.14,3.44-5.83,9.69-8,13.81-12.95C25.44,24.29,16.51,27.73,11.28,34.83Z"/><path id="Path_60" data-name="Path 60" class="cls-1" d="M131.11,18c-6.89-4.39-10.65-11.82-15.67-18C123.11.26,130.63,8.79,131.11,18Z"/><path id="Path_61" data-name="Path 61" class="cls-1" d="M18.18,18.74A19.16,19.16,0,0,1,32.7.69,51.68,51.68,0,0,1,18.18,18.74Z"/></g></g></g></g></svg>