<svg xmlns="http://www.w3.org/2000/svg" xmlns:xlink="http://www.w3.org/1999/xlink" viewBox="0 0 58.62 19.16"><defs><style>.cls-1{fill:#333;}.cls-2{fill:#4d529f;}.cls-3{fill:url(#Naamloos_verloop_3);}</style><linearGradient id="Naamloos_verloop_3" x1="60.13" y1="2.8" x2="3.48" y2="17.68" gradientUnits="userSpaceOnUse"><stop offset="0" stop-color="#24ac71"/><stop offset="1" stop-color="#0e8136"/></linearGradient></defs><g id="Laag_2" data-name="Laag 2"><g id="Laag_1-2" data-name="Laag 1"><polygon class="cls-1" points="12.81 11.7 12.81 12.25 8.68 12.25 8.68 3.46 9.29 3.46 9.29 11.7 12.81 11.7"/><path class="cls-1" d="M18.09,6.42a1.9,1.9,0,0,0-1.5-.6A4,4,0,0,0,15.46,6a3.28,3.28,0,0,0-.94.47v.69a3,3,0,0,1,2-.83c1,0,1.52.67,1.52,2l-1.93.28c-1.45.24-2.17.89-2.17,2a1.67,1.67,0,0,0,.52,1.27,2,2,0,0,0,1.42.5A2.31,2.31,0,0,0,17.16,12,2.57,2.57,0,0,0,18,11h0v1.26h.57V8.17A2.58,2.58,0,0,0,18.09,6.42Zm0,3.07a2.46,2.46,0,0,1-.59,1.72,2,2,0,0,1-1.52.68,1.42,1.42,0,0,1-1-.36,1.21,1.21,0,0,1-.37-.93,1.21,1.21,0,0,1,.39-1,3,3,0,0,1,1.39-.46l1.72-.25Z"/><path class="cls-1" d="M25.21,6v6.28h-.56V11.11h0a2.14,2.14,0,0,1-2,1.29c-1.48,0-2.23-.94-2.23-2.8V6H21V9.46a3.2,3.2,0,0,0,.42,1.85,1.51,1.51,0,0,0,1.32.58,1.78,1.78,0,0,0,1.42-.65,2.58,2.58,0,0,0,.54-1.71V6Z"/><path class="cls-1" d="M30.18,6v.6a1.14,1.14,0,0,0-.66-.2,1.48,1.48,0,0,0-1.25.77,4,4,0,0,0-.5,2.17v2.95h-.55V6h.55V7.36h0a2.41,2.41,0,0,1,.68-1.11,1.63,1.63,0,0,1,1.09-.4A1.75,1.75,0,0,1,30.18,6Z"/><path class="cls-1" d="M35.14,11.91h0l-.7.34a3.63,3.63,0,0,0,.92-.42l.18-.12Z"/><path class="cls-2" d="M35.14,11.91h0l-.7.34a3.63,3.63,0,0,0,.92-.42l.18-.12Zm-2.06.49h0Z"/><path class="cls-1" d="M35.88,8.88a3.61,3.61,0,0,0-.62-2.24,2.1,2.1,0,0,0-1.79-.82,2.51,2.51,0,0,0-2,.94,3.46,3.46,0,0,0-.79,2.31,3.63,3.63,0,0,0,.75,2.45h0a1.33,1.33,0,0,0,.27.26,2.3,2.3,0,0,0,1.41.59h0a1.1,1.1,0,0,0,.26,0l.37,0a3.12,3.12,0,0,0,.69-.13l.7-.34h0l.39-.2h0v-.6a4.15,4.15,0,0,1-1.16.63,2.21,2.21,0,0,1-.66.13,1,1,0,0,1-.24,0,2,2,0,0,1-1.41-.5,2.5,2.5,0,0,1-.23-.23.21.21,0,0,1,0-.06,3.14,3.14,0,0,1-.56-2h4.64Zm-4.61-.26A2.86,2.86,0,0,1,32,6.92a2,2,0,0,1,1.47-.58,1.59,1.59,0,0,1,1.33.6,2.82,2.82,0,0,1,.52,1.68Z"/><path class="cls-1" d="M41.73,7.72h0a2.09,2.09,0,0,0-.07-.39v0a.74.74,0,0,0,0-.14,2.22,2.22,0,0,0-.2-.47,1.89,1.89,0,0,0-.2-.27,1.64,1.64,0,0,0-.4-.34,1.82,1.82,0,0,0-.58-.21,2.1,2.1,0,0,0-.51,0A3.87,3.87,0,0,0,38.61,6a3.36,3.36,0,0,0-1,.47v.69a3.12,3.12,0,0,1,1.67-.8h0a1.31,1.31,0,0,1,.34,0,2.29,2.29,0,0,1,.39,0,1.3,1.3,0,0,1,1,1c0,.1,0,.21.07.31a1.85,1.85,0,0,1,0,.23c0,.07,0,.14,0,.21v.28l-.54.08-.86.12-.53.08a3.71,3.71,0,0,0-1,.31,2,2,0,0,0-.62.41,1.47,1.47,0,0,0-.36.53h0a1.35,1.35,0,0,0-.12.47,2.11,2.11,0,0,0,0,.26h0a1.21,1.21,0,0,0,0,.19,2.17,2.17,0,0,0,0,.25,1.74,1.74,0,0,0,.14.38,1.87,1.87,0,0,0,.33.44,1.94,1.94,0,0,0,1.41.5A2.31,2.31,0,0,0,40.3,12a2.5,2.5,0,0,0,.87-1h0v1.26h.57V8.17A3.19,3.19,0,0,0,41.73,7.72Zm-.54,1.77A2.71,2.71,0,0,1,41,10.55a2.29,2.29,0,0,1-.38.62l0,0a1.93,1.93,0,0,1-1.51.68,1.42,1.42,0,0,1-1-.36.76.76,0,0,1-.11-.14.79.79,0,0,1-.2-.37,1.16,1.16,0,0,1-.07-.42.53.53,0,0,1,0-.13,1.21,1.21,0,0,1,.13-.55.8.8,0,0,1,.26-.34,2.11,2.11,0,0,1,.72-.33h0l.12,0c.16,0,.34-.07.54-.1l.26,0,1.46-.21Z"/><path class="cls-2" d="M41.73,7.71h0l.05,0Z"/><path class="cls-2" d="M43.29,6.78l.1,0,0,0Z"/><path class="cls-1" d="M44.47,10.63a1.73,1.73,0,0,0,.2.94.82.82,0,0,0,.7.29,1.56,1.56,0,0,0,.76-.22v.52a2,2,0,0,1-.84.21c-.92,0-1.38-.55-1.38-1.67V6.48H42.78V6h1.13V4.34l.28-.09.28-.09V6h1.66v.51H44.47Z"/><path class="cls-2" d="M44.65,6.48l-.18,0v0Z"/><path class="cls-1" d="M52.08,6.7A2.52,2.52,0,0,0,51,6a3.16,3.16,0,0,0-.53-.13,3.19,3.19,0,0,0-.54,0,2.89,2.89,0,0,0-2.06.75l-.14.13c-.07.07-.13.15-.19.22a3.62,3.62,0,0,0-.64,2.23,3.4,3.4,0,0,0,.8,2.35,3.07,3.07,0,0,0,4.34,0,3.49,3.49,0,0,0,.79-2.38A3.55,3.55,0,0,0,52.08,6.7Zm-.43,4.45a2.42,2.42,0,0,1-3.5,0,2.88,2.88,0,0,1-.64-2,3,3,0,0,1,.65-2.08L48.25,7a1.92,1.92,0,0,1,.49-.37,2.41,2.41,0,0,1,1.19-.28,1.75,1.75,0,0,1,.4,0,1.72,1.72,0,0,1,.52.12,1.88,1.88,0,0,1,.8.56,3.09,3.09,0,0,1,.62,2.06A3.09,3.09,0,0,1,51.65,11.15Z"/><path class="cls-3" d="M0,12.7c1.49.65,4.24.79,4.37,1.56a.66.66,0,0,1,0,.45C3.39,14.17-.41,13.64,0,12.7Zm5.73,1.93c2.73,1.4,7.85-1.38,10.1.2a6.25,6.25,0,0,1-3.31,1.07h0c-2-.14-4.05-.8-6.09-.8a23.91,23.91,0,0,0,6,1.17c3.07,1.1,3.16,3.59-1.13,2-2.18-1-4-3.3-6.7-3.56,2.37.67,4.44,3,6.56,3.92,3,1.48,6-.4,2.08-2.42,1-.09,2.9-.86,3-1.23C15.21,12.39,8.33,15.45,5.77,14.63Zm2.72-1.12a.08.08,0,0,1,.07,0H8.49Zm5.07,0v0h.11Zm9.26,4.73c-2.17.07-5.37-1.78-7.43-1.75,2.79-.62,7.49,2.73,9.52.77-.53-1.3-5.95-1-7.38-.8A11.53,11.53,0,0,0,19.06,16c-.59,0-1.06.07-1.59.07,1.43-.15,3.08-1.34,4.49-2,3.32-1,4.14,1,1,1.92C26.13,16.4,25.79,18.4,22.82,18.21Zm1.93-3.78c-1.39-.94-4.14.83-5.68,1.53C20.38,15.93,24,15.72,24.75,14.43Zm1.69.84c9.86-3,7.87,1.56-1.09.29,2.27,0,6.3,1.85,7.93-.51C33.08,12.29,28,14.38,26.44,15.27ZM13.56,13.48v0h.11Zm0,0v0h.11Zm15.28-.59A6.89,6.89,0,0,1,26.05,15a4.34,4.34,0,0,0,3.06-1.84A2.37,2.37,0,0,1,28.84,12.89Zm-1.16-1.84h0ZM49.84,2.64a14,14,0,0,1,5.31,0A5.16,5.16,0,0,0,49.84,2.64Zm4.09-.58C56,2,57.5,3.08,58.62,3.27,58.07,2.19,55.5,1.57,53.93,2.06Zm-5,.58c1.62-.26,3.13-2,4.72-2.13,2.54-.15,4.17.51-.14,1.19h0c1,.09,3,.09,3.1-.89C54.45-1.29,51.09,1.15,49,2.64Z"/></g></g></svg>