<svg xmlns="http://www.w3.org/2000/svg" viewBox="0 0 217.56 64.76"><defs><style>.cls-1{fill:#333;}.cls-2{fill:#0e8136;}</style></defs><g id="Laag_2" data-name="Laag 2"><g id="Laag_1-2" data-name="Laag 1"><path class="cls-1" d="M27.23,46.21V14.71H25.41V47.82h15.3V46.21Z"/><path class="cls-1" d="M61,26a7,7,0,0,0-5.54-2.21,13.64,13.64,0,0,0-4.23.73,11.92,11.92,0,0,0-3.45,1.69v1.95a11.9,11.9,0,0,1,7.47-2.91c4,0,6.06,2.69,6.06,8v.21l-7.6,1.14c-5.45.86-8.11,3.26-8.11,7.34a6.26,6.26,0,0,0,1.92,4.68,7.3,7.3,0,0,0,5.24,1.85A8.36,8.36,0,0,0,57.45,47a9.18,9.18,0,0,0,3.25-3.82l.07-.14h.5v4.8h1.65V32.46C62.92,29.62,62.26,27.43,61,26Zm.31,11.55a9.86,9.86,0,0,1-2.36,6.79A7.69,7.69,0,0,1,53,46.94a5.71,5.71,0,0,1-4.13-1.45,5,5,0,0,1-1.49-3.7A5,5,0,0,1,49,37.67a11.75,11.75,0,0,1,5.41-1.8l6.9-1Z"/><path class="cls-1" d="M86.49,24.32V37.67a10.11,10.11,0,0,1-2.14,6.72,7,7,0,0,1-5.61,2.55,6.11,6.11,0,0,1-5.26-2.31c-1.09-1.5-1.65-3.93-1.65-7.22V24.32H70.15V38c0,7,2.7,10.46,8.26,10.46a8,8,0,0,0,7.51-4.81l.07-.14h.5v4.36h1.65V24.32Z"/><path class="cls-1" d="M105,23.85a5.94,5.94,0,0,0-4,1.47,8.49,8.49,0,0,0-2.53,4.14l0,.18h-.53V24.32H96.33v23.5h1.61v-11c0-3.63.66-6.47,2-8.46a5.87,5.87,0,0,1,5-3,4.54,4.54,0,0,1,2.28.57V24.2A6.24,6.24,0,0,0,105,23.85Z"/><path class="cls-1" d="M123.68,46.32l-.12.08a1.06,1.06,0,0,0,.21-.11Zm-1.24,1.8a11.08,11.08,0,0,0,1.29-.33A6.92,6.92,0,0,0,122.44,48.12Zm0,0h0a0,0,0,0,1,0,0h0Zm-.06,0h0Zm-.39-.92h0l.06,0Zm-4,1.09-.06.07.07-.07Z"/><path class="cls-1" d="M129,35.92V35.2c0-3.55-.78-6.38-2.34-8.42a7.89,7.89,0,0,0-6.66-3,9.43,9.43,0,0,0-7.58,3.5,13.18,13.18,0,0,0-2.93,8.69c0,4,.94,7.07,2.8,9.24a10.55,10.55,0,0,0,.94.95,7.51,7.51,0,0,0,.83.66,9.23,9.23,0,0,0,4,1.53h0a11.87,11.87,0,0,0,1.21.09h.37a13.86,13.86,0,0,0,2.75-.27h.06a0,0,0,0,0,0,0h0a6.92,6.92,0,0,1,1.29-.33l.16,0a13.53,13.53,0,0,0,2.67-1.19h.09a9.4,9.4,0,0,0,1-.68V44.21c-.42.31-.85.6-1.28.86a13.88,13.88,0,0,1-2.6,1.22h0a1.06,1.06,0,0,1-.21.11l.12-.08a11.05,11.05,0,0,1-3.61.62h0c-.35,0-.7,0-1,0a8.14,8.14,0,0,1-3.29-1,6.47,6.47,0,0,1-1-.66,7.48,7.48,0,0,1-1.16-1.16c-1.55-1.9-2.34-4.55-2.34-7.89v-.25Zm-17.67-1.75a11.2,11.2,0,0,1,2.8-6.63,7.78,7.78,0,0,1,5.77-2.34,6.5,6.5,0,0,1,5.31,2.39,10.91,10.91,0,0,1,2,6.6v.26h-16Zm10.65,13,.06,0-.06,0Z"/><path class="cls-1" d="M122.36,48.14h0Zm-3.34.51s0,0,0,0l.08,0Zm-1-.34-.06.07.07-.07Zm4.41-.19a0,0,0,0,1,0,0h0Z"/><path class="cls-1" d="M151.4,31.24c0-.35-.06-.68-.11-1a8.93,8.93,0,0,0-.94-3,5.47,5.47,0,0,0-.55-.86,3,3,0,0,0-.32-.41,6.15,6.15,0,0,0-2.94-1.85,6,6,0,0,0-1-.23,9.21,9.21,0,0,0-1.61-.13,13.58,13.58,0,0,0-4.22.73,11.67,11.67,0,0,0-3.45,1.69v1.95a11.88,11.88,0,0,1,7.46-2.91,6.25,6.25,0,0,1,1.25.11,4.43,4.43,0,0,1,1,.23,4.77,4.77,0,0,1,2.56,2,5,5,0,0,1,.49.92h0a8.71,8.71,0,0,1,.59,2.09,7.82,7.82,0,0,1,.12,1,13.6,13.6,0,0,1,.08,1.6v.21l-5.9.89h0l-1.36.2-.32,0-.54.1-.44.08h0c-.22.05-.44.09-.65.15h0l-.39.09h0a10.65,10.65,0,0,0-3.36,1.48,6.53,6.53,0,0,0-1,.86,5.74,5.74,0,0,0-1.42,2.44h0c-.05.17-.09.35-.13.53a6.08,6.08,0,0,0-.12.87.66.66,0,0,0,0,.14h0c0,.19,0,.37,0,.57a6.34,6.34,0,0,0,1.45,4.19c.15.17.3.33.46.49s.21.19.32.28a7.44,7.44,0,0,0,4.92,1.57A8.31,8.31,0,0,0,146,47a9.18,9.18,0,0,0,3.25-3.82l.07-.14h.5v4.8h1.66V32.46A12.07,12.07,0,0,0,151.4,31.24Zm-1.61,6.26a9.81,9.81,0,0,1-2.36,6.79,7.68,7.68,0,0,1-6,2.65A6.13,6.13,0,0,1,138,46a4.07,4.07,0,0,1-.69-.55l-.12-.13a5,5,0,0,1-1.37-3.57,5.74,5.74,0,0,1,0-.73,5.52,5.52,0,0,1,.16-1,2,2,0,0,1,.09-.33,4,4,0,0,1,1.33-2,6.34,6.34,0,0,1,1.69-.91l.75-.25.33-.1.06,0h0l.22-.06h0a23.35,23.35,0,0,1,2.35-.46l6.89-1Z"/><path class="cls-1" d="M161.83,25.79V41.88a6.57,6.57,0,0,0,.83,3.75,3.31,3.31,0,0,0,2.87,1.22,5.88,5.88,0,0,0,2.63-.71v1.44a7.12,7.12,0,0,1-2.92.71c-3.41,0-5.07-2-5.07-6.12V25.79h-4.31V24.32h4.31V18l.9-.31c.26-.07.51-.15.76-.24v6.86h6.33v1.47Z"/><path class="cls-1" d="M191,27a10.12,10.12,0,0,0-7.92-3.26A10.92,10.92,0,0,0,174.81,27c-2.07,2.19-3.13,5.28-3.13,9.18a12.85,12.85,0,0,0,3,8.82,11.43,11.43,0,0,0,16.24,0,13.09,13.09,0,0,0,3-8.9C193.89,32.25,192.91,29.18,191,27Zm-1.24,17a8.49,8.49,0,0,1-6.87,2.9A8.69,8.69,0,0,1,176,44a11.49,11.49,0,0,1-2.52-7.73c0-3.44.87-6.17,2.58-8.11a8.87,8.87,0,0,1,7-2.95A8.49,8.49,0,0,1,189.75,28c1.59,1.87,2.39,4.57,2.39,8S191.33,42.12,189.74,44Z"/><path class="cls-2" d="M0,31.1c9.24,8.77,9.1,10.17,19.24,15.84a15,15,0,0,1,3.61,3.53C12.72,46.09,7.06,41.55,0,31.1Z"/><path class="cls-2" d="M26.9,51.28c-.26-.09-.51-.19-.75-.29l0-.09C26.42,51,26.66,51.14,26.9,51.28Z"/><path class="cls-2" d="M40.56,55.32a13.84,13.84,0,0,1,2.3,1.56c-.93-.2-1.84-.44-2.72-.64l-.06,0Z"/><path class="cls-2" d="M70.62,58.62c.23.06.45.11.66.18-4.83.18-9.94.17-14.68,0,5.63-1.23,12.33-.68,18.25-1.08A39,39,0,0,1,70.62,58.62Z"/><path class="cls-2" d="M97.39,56.89a149.22,149.22,0,0,1-17.22,2.29,22.71,22.71,0,0,0,4-1.36h0c4.1-.41,8-.94,11.84-1.67l-.67.32A8.9,8.9,0,0,1,97.39,56.89Z"/><path class="cls-2" d="M112,51.52l.54-.08-1.27.57h0a63.6,63.6,0,0,1-11,4,9.85,9.85,0,0,0,2.21-.89h0a40.1,40.1,0,0,0-4.37.39,60.34,60.34,0,0,0,12.74-4.4c.94-.42,1.87-.82,2.76-1.25l.22,0A10.33,10.33,0,0,1,112,51.52Z"/><path class="cls-2" d="M117.4,49.13h0s0,0,0,0h.05Z"/><path class="cls-2" d="M139.41,35.9c-.18.11-.33.23-.47.33.15-.12.3-.24.44-.37Z"/><path class="cls-2" d="M201.57,4.17l-3.73.8L198,5a60,60,0,0,0-11.05.9c-1.79.29-3.6.7-5.38,1.15.77-.23,1.84-.62,3-1.1-1.81.15-3.58.53-5.22.69a60.89,60.89,0,0,1,7.73-1.78A103.86,103.86,0,0,1,201.57,4.17Z"/><path class="cls-2" d="M217.56,8.34c-4.2-.57-9.08-3.09-13.95-2.9a3.22,3.22,0,0,0-.28-.24,8.83,8.83,0,0,0,1.23-.6C208.83,5.27,214.48,5.53,217.56,8.34Z"/><path class="cls-2" d="M43.76,53a15.31,15.31,0,0,1-7,1.2h0c-2.07-.54-4-1.09-5.8-1.67s-3.44-1-5-1.63a16.82,16.82,0,0,1,2.64,1.91l0,0,1.19.4,0,.12-.15-.15c-1.34-.43-2.6-.92-3.82-1.41h0c7.91,4.47,8.06,15,19.07,11.89a2,2,0,0,0,1.34-1.62c.06-1.43-1.09-3-2.53-4.45a.13.13,0,0,1,.1-.23,29.69,29.69,0,0,0,5.09-.12h0c4-.43,7-1.62,7.31-2.87v-.08C55.6,50.57,47,51.24,43.76,53Zm-1.22,3.64h0Zm4.35-.18h0c-2.15-.25-3.62-.44-5.4-.8-.13-.08-.77-.27-.91-.35l-.48.88.06,0h0c8.63,5.88,5.06,8.61-3.22,5.49-2.12-1-3.95-4.63-6.06-7.17a.13.13,0,0,1,.14-.2c6.22,1.68,13.3-.18,16.57-1.49l1.16-.19C59,52.35,55.86,56.28,46.89,56.47Z"/><path class="cls-2" d="M56.48,58.75h0Z"/><path class="cls-2" d="M79.87,55c-1.6,2.28-7.69,3.37-11.05,3.86,0-.22-.11-.77-.14-1C78,56.8,84,53,72.82,53c-6.45.44-9.63,6.5-16.25,4.8,6,.24,9.82-5.38,16.2-5.8C76.88,51.89,80.76,52.35,79.87,55Z"/><path class="cls-2" d="M74.75,61.57c-.11,1.72-4.22,3.19-7.51,3.19-7.67,0-7.51-5.21-15.06-6.26h0c1.37.1,2.8.2,4.25.26,4.54,1.89,5,5.11,10.81,5,8.12-.77,9.34-3.65-.57-4.82,0,0,.12-1,.12-1a30.37,30.37,0,0,1,4.5.85C73.66,59.48,74.82,60.41,74.75,61.57Z"/><path class="cls-2" d="M82,58.2l.13,0a.23.23,0,0,1-.11,0h0Z"/><path class="cls-2" d="M99.59,53.11c-.5,2-5.18,3.84-7.59,4.72l-.33-.94c11.45-4,6.74-6.39-.36-3.52-2.77,1.52-4.34,3.3-7.14,4.45-1.41.15-2.85.28-4.3.4,3.33-.39,7.65-3.59,10.95-5.72C93.48,51.26,99.85,49.76,99.59,53.11Z"/><path class="cls-2" d="M119.18,54c-4,6.4-15.08.43-20.91,2.46a14.83,14.83,0,0,0,4.19-1.36c4.22-.32,8.75,1.73,12.63.66,7.66-3.15.52-4.89-6.94-2.45l-.25-1c1.23-.32,3.14-.71,4.7-1C116,51,120,50.6,119.18,54Z"/><path class="cls-2" d="M77.78,57.51h0Z"/><path class="cls-2" d="M100,59.42c-8,7.27-14.31.79-24.3.09,7.81-1.51,16,5.62,23.31-.1,0-.42-.9-1.83-4.37-2,0-.23,0-.77,0-1C96.73,56.09,100.45,58.37,100,59.42Z"/><path class="cls-2" d="M113,49.31l-.07.07.06-.07Z"/><path class="cls-2" d="M113.82,49.89A10.5,10.5,0,0,1,111.31,52h0a6.75,6.75,0,0,1-1.93.83c0-.15-.2-.84-.23-1a5.71,5.71,0,0,0,1.7-.74,9,9,0,0,0,1.76-1.38A9.91,9.91,0,0,0,113.82,49.89Z"/><path class="cls-2" d="M108.62,48.08c-1.49,1-3,4.06-4.5,5.78h0a6.35,6.35,0,0,1-1.62,1.27c-.84,0-1.69.09-2.44.15l-.06-.21c4.6-1.15,4.57-4.86,7.82-7.64A10,10,0,0,0,108.62,48.08Z"/><path class="cls-2" d="M117,48.22l.06,0-.06,0Z"/><path class="cls-2" d="M117.35,49.14h0Z"/><path class="cls-2" d="M117.36,49.14h0Z"/><path class="cls-2" d="M117.42,49.12h0a0,0,0,0,0,0,0Z"/><path class="cls-2" d="M118.77,47.29a1.06,1.06,0,0,1-.21.11A1.39,1.39,0,0,1,118.77,47.29Z"/><path class="cls-2" d="M138.94,36.23l-.11.09h0Z"/><path class="cls-2" d="M182.26,10.18c-.69-1.62-2.32-2.1-4.86-2h0c-.39,0-.81,0-1.25.1a14.94,14.94,0,0,0,2-1.46h0c3.83-4.08-4.41-4.14-6.54-2.3-3.38,1.93-5,7-8.52,9.8a1.73,1.73,0,0,0,.32-.11c4.19-1.55,5.49-7,8.73-8.85,1.8-1,4.65-1.73,6.07-.25,0,.06-.07,1.08-5.36,3.87h0c-3,1.46-6.32,2.76-8.39,5.4v.34c12.29-9.82,24-3.75,11.86-1.6-3-.06-7.92-.17-11.86,1.78V16C169.84,12.18,181.62,17.11,182.26,10.18Zm-8.77-1.44v0h.08Z"/><path class="cls-2" d="M171.42,11.55l-.07,0v0Z"/><path class="cls-2" d="M171.42,11.55l-.07,0v0Z"/><path class="cls-2" d="M179.62,8.52h0Z"/><path class="cls-2" d="M198.5,5.87h-.05v0Z"/><path class="cls-2" d="M201.31,7.62c-3.74,3.61-9.74.09-14.05-.67-2.26-.27-5.48.44-7.76.71.54-.17,1.06-.33,1.6-.46,1.6-.42,3.91-1.65,5.84-1.28,2.91.2,3,.75,5.56,1.57,3.79,1.58,12,.14,5.51-2.47.8,0,1.61,0,2.4.08C201.17,5.69,201.84,6.8,201.31,7.62Z"/><path class="cls-2" d="M203.51,2c.62.49-.56,1.5-1.94,2.21-.74-.06-1.95.17-2.69.15,5.45-2,3.76-3.41-1.49-3.47-4.21,0-6.49,2.29-10.32,4h0c-2,1.17-4.3,1.31-6.4,1.61,0,0,0-.21,0-.22C187.09,5,196.1-3.86,203.51,2Z"/></g></g></svg>