<svg id="Middel_2" data-name="Middel 2" xmlns="http://www.w3.org/2000/svg" width="176.143" height="60.473" viewBox="0 0 176.143 60.473">
  <g id="Laag_1" data-name="Laag 1" transform="translate(1.5)">
    <path id="Path_1" data-name="Path 1" d="M121.887,77.986a31.891,31.891,0,0,1,6.725,4.774c.4.4,1.248.682.5,1.548s-1.159.416-1.712-.184a29.73,29.73,0,0,0-5.968-5.142,2.087,2.087,0,0,0-2.551,0,25.385,25.385,0,0,0-5.968,5.2c-.512.627-.866,1.071-1.616.293s0-1.166.375-1.569a34.714,34.714,0,0,1,6.868-4.986c-1.76-.614-2.9.109-4,.8-1.289.812-2.483,1.78-3.778,2.564a9.656,9.656,0,0,1-12-1.425,27.277,27.277,0,0,0,2.8.621,11.321,11.321,0,0,0,6.227-1.146c3.042-1.48,6.138-2.939,9.63-2.448a20.352,20.352,0,0,0,5.456,0,13.2,13.2,0,0,1,7.6,1.4c3.287,1.637,6.656,2.789,10.414,1.644a8.375,8.375,0,0,1-7.113,2.585c-2.926-.341-5.313-1.9-7.632-3.642A4.094,4.094,0,0,0,121.887,77.986Z" transform="translate(-32.427 -24.42)" fill="#0d8136"/>
    <path id="Path_2" data-name="Path 2" d="M163.642,53.42c-.682,6.493-.784,6.752-2.946,10.912,3.41-2.817,8.014-3.581,10.912-7.257-2.571,6.875-7.945,9.323-14.718,9.971C160.184,63,159.952,57.267,163.642,53.42Z" transform="translate(-50.911 -16.987)" fill="#0d8136"/>
    <path id="Path_3" data-name="Path 3" d="M93.166,65.369C89.974,62.389,90.22,58.215,89.3,54c3.881,3.819,3.615,9.439,6.82,13.163-5.7,1-13.3-3.935-14.629-9.6a15.83,15.83,0,0,0,5.736,4.208,33.87,33.87,0,0,1,5.94,3.594Z" transform="translate(-26.936 -17.171)" fill="#0d8136"/>
    <path id="Path_4" data-name="Path 4" d="M167.18,56.9c1.787-4.679.682-9.841,2.489-14.936.573,3.751,1.644,7,.682,10.517,2.094-3.41,5.722-5.456,7.3-9.289C177.54,50.5,172.472,53.759,167.18,56.9Z" transform="translate(-54.184 -13.343)" fill="#0d8136"/>
    <path id="Path_5" data-name="Path 5" d="M85.429,43c1.685,4.965.737,10.032,2.674,14.657-6.138-2.121-10.994-8.232-10.708-13.64C79.3,48,82.851,50.209,85,53.783,83.642,50.188,84.569,46.792,85.429,43Z" transform="translate(-25.629 -13.673)" fill="#0d8136"/>
    <path id="Path_6" data-name="Path 6" d="M107.993,72.841c-7.5,2.933-13.64,3.28-18.073-2.8,4.283,2.571,8.778,1.719,13.067,2.544-3.274-1.275-4.317-4.317-5.831-7.639C101.146,67.5,103.267,71.907,107.993,72.841Z" transform="translate(-29.616 -20.653)" fill="#0d8136"/>
    <path id="Path_7" data-name="Path 7" d="M148.352,72.327c4.256-1,8.866-.109,12.958-2.667-2.2,4.87-7.83,5.818-17.93,3.049a12.9,12.9,0,0,0,5.79-3.485c1.46-1.61,3.062-3.076,4.774-4.774A10.054,10.054,0,0,1,148.352,72.327Z" transform="translate(-46.616 -20.494)" fill="#0d8136"/>
    <path id="Path_8" data-name="Path 8" d="M178.052,27.32c2.046,5.163.15,11.206-4.9,16.15.218-4.965-2.585-9.214-2.332-14.09,1.562,2.953,4.058,5.456,3.785,9.3C175.351,34.761,177.909,31.521,178.052,27.32Z" transform="translate(-55.337 -8.687)" fill="#0d8136"/>
    <path id="Path_9" data-name="Path 9" d="M81.738,37.888c.382-3.028,2.121-5.395,3.615-8.184.273,5.224-2.523,9.616-2.394,14.575C78.1,39.34,76.261,34.4,77.85,28.36c.532,3.683,2.462,6.575,3.287,9.882C81.6,38.611,81.581,38.079,81.738,37.888Z" transform="translate(-25.601 -9.018)" fill="#0d8136"/>
    <path id="Path_10" data-name="Path 10" d="M173.8,29.117c-1.255-3.887-4.392-6.356-5.708-10a6.86,6.86,0,0,1-.409-1.753c2.387,2.2,5.231,3.956,6,7.577-.409-3.915.5-7.768.061-11.833C175.987,16.009,177.528,19.971,173.8,29.117Z" transform="translate(-54.343 -4.169)" fill="#0d8136"/>
    <path id="Path_11" data-name="Path 11" d="M82.134,30.1c-2-5.238-4-10.23-.512-15.434-.089,3.506.893,6.929.682,10.524,1.084-3.076,3.506-4.9,5.859-7.325C87.365,22.888,83.511,25.712,82.134,30.1Z" transform="translate(-26.372 -4.665)" fill="#0d8136"/>
    <path id="Path_12" data-name="Path 12" d="M167.015,5.07c3.717,1.787,4.9,5.8,3.84,12-4.685-3.185-7.284-6.138-7.755-8.928,1.139.88,2.21,1.76,3.328,2.571a31.917,31.917,0,0,1,3.055,2.687C168.822,10.669,168.536,7.873,167.015,5.07Z" transform="translate(-52.886 -1.612)" fill="#0d8136"/>
    <path id="Path_13" data-name="Path 13" d="M84.978,18.077c-1.241-6.534-.2-10.3,3.608-12.447-1.6,2.919-1.671,6.022-2.585,8.941,1.637-2.728,4.645-3.758,6.609-6.056C91.757,13.153,87.481,14.749,84.978,18.077Z" transform="translate(-27.886 -1.79)" fill="#0d8036"/>
    <path id="Path_14" data-name="Path 14" d="M165.862,8.416c-3.315-2.08-5.1-5.545-7.5-8.416C162.022.123,165.617,4.092,165.862,8.416Z" transform="translate(-51.379)" fill="#0d8036"/>
    <path id="Path_15" data-name="Path 15" d="M90.06,8.913A9.012,9.012,0,0,1,97.01.47C96.157,2.816,92.543,7.195,90.06,8.913Z" transform="translate(-29.661 -0.149)" fill="#0d8036"/>
    <path id="Path_16" data-name="Path 16" d="M1.5,15.25h.982V48.942H22.029l-.348.921H1.5Z" transform="translate(-1.5 -4.849)" fill="#1d1d1b" stroke="#fff" stroke-miterlimit="10" stroke-width="3"/>
    <path id="Path_17" data-name="Path 17" d="M55.373,48.817a43.964,43.964,0,0,0,.246,5.538h-.982A45.012,45.012,0,0,1,54.39,48.9c-1.323,4.092-4.419,6.043-8.866,6.043-5.893,0-8.184-3.485-8.184-6.977,0-5.252,4.092-7.414,10.912-7.414,2.8,0,4.419,0,6.186.048v-3.41c0-3.533-1.473-6.922-7.27-6.922-5.4,0-7.263,2.728-7.611,6.431h-1.03c.2-3.533,2.162-7.318,8.648-7.318,5.845,0,8.184,3.246,8.184,7.5Zm-.982-7.366c-1.671-.055-3.683-.055-6.234-.055-6.629,0-9.821,2.107-9.821,6.479,0,3.785,2.994,6.09,7.216,6.09,5.695,0,8.866-3.485,8.866-10.162Z" transform="translate(-12.897 -9.342)" fill="#1d1d1b" stroke="#fff" stroke-miterlimit="10" stroke-width="3"/>
    <path id="Path_18" data-name="Path 18" d="M94.237,47.886c0,2.408.055,5.6.055,6.684h-.982c-.055-.348-.15-3.635-.1-6.043a8.611,8.611,0,0,1-8.743,6.534c-3.41,0-8.443-1.575-8.443-9.187V30.187H77V46.269c0,4.024,2.114,7.857,7.5,7.857,5.054,0,8.689-3.41,8.689-10.558V30.16h1.03Z" transform="translate(-25.196 -9.59)" fill="#1d1d1b" stroke="#fff" stroke-miterlimit="10" stroke-width="3"/>
    <path id="Path_19" data-name="Path 19" d="M114.978,38.231c0-5.354,0-6.82-.048-8.348h.934c.1,1.228.1,4.024.1,7.073,1.228-4.276,5.306-7.5,9.234-7.666v.982c-5.013.2-9.234,5.211-9.234,10.858v13.2h-.982Z" transform="translate(-37.569 -9.314)" fill="#1d1d1b" stroke="#fff" stroke-miterlimit="10" stroke-width="3"/>
    <path id="Path_20" data-name="Path 20" d="M134.542,41.819c0,7.611,3.778,12.079,9.084,12.079,4.808,0,7.12-2.605,8.546-5.8h.982c-1.473,3.833-4.276,6.684-9.48,6.684-7.5,0-10.114-6.731-10.114-12.774,0-7.809,4.222-12.72,10.23-12.72,7.564,0,9.923,6.629,9.923,11.3a10.613,10.613,0,0,1-.048,1.228Zm18.217-.887c0-5.893-2.946-10.755-9.037-10.755-5.4,0-8.866,4.467-9.132,10.755Z" transform="translate(-43.493 -9.314)" fill="#1d1d1b" stroke="#fff" stroke-miterlimit="10" stroke-width="3"/>
    <path id="Path_21" data-name="Path 21" d="M188.072,48.8a42.55,42.55,0,0,0,.246,5.5h-.982a43.546,43.546,0,0,1-.246-5.456c-1.33,4.092-4.419,6.043-8.866,6.043-5.893,0-8.184-3.485-8.184-6.977,0-5.252,4.092-7.414,10.912-7.414,2.8,0,4.419,0,6.193.048v-3.41c0-3.533-1.473-6.922-7.27-6.922-5.4,0-7.27,2.728-7.611,6.431h-.982c.2-3.533,2.162-7.318,8.641-7.318,5.845,0,8.184,3.246,8.184,7.5Zm-1.009-7.366c-1.671-.048-3.683-.048-6.24-.048-6.629,0-9.821,2.107-9.821,6.479,0,3.785,2.994,6.09,7.223,6.09,5.695,0,8.866-3.485,8.866-10.162Z" transform="translate(-55.093 -9.326)" fill="#1d1d1b" stroke="#fff" stroke-miterlimit="10" stroke-width="3"/>
    <path id="Path_22" data-name="Path 22" d="M203.1,26.382h4.563v-8.1h.982v8.1h6.09v.88h-6.09V45.731c0,2.653.546,4.617,3.587,4.617A6.138,6.138,0,0,0,214.2,50.1v.88a5.722,5.722,0,0,1-2.046.3c-3.24,0-4.522-1.425-4.522-5.8V27.262H203.1Z" transform="translate(-65.606 -5.813)" fill="#1d1d1b" stroke="#fff" stroke-miterlimit="10" stroke-width="3"/>
    <path id="Path_23" data-name="Path 23" d="M245.411,42.025c0,8.184-4.344,12.958-10.8,12.958S224.05,50.025,224.05,42.168c0-8.45,4.774-12.958,10.8-12.958S245.411,33.882,245.411,42.025Zm-20.331.048c0,6.479,3.24,11.983,9.548,11.983S244.4,48.9,244.4,42.073c0-6.581-3.41-12.031-9.623-12.031-6.356.014-9.7,5.606-9.7,12.044Z" transform="translate(-72.267 -9.288)" fill="#1d1d1b" stroke="#fff" stroke-miterlimit="10" stroke-width="3"/>
    <path id="Path_24" data-name="Path 24" d="M1.5,15.17h.982V48.862H22.029l-.348.88H1.5Z" transform="translate(-1.5 -4.824)" fill="#1d1d1b"/>
    <path id="Path_25" data-name="Path 25" d="M55.373,48.718a43.71,43.71,0,0,0,.246,5.5h-.982a44.78,44.78,0,0,1-.246-5.456c-1.323,4.126-4.419,6.043-8.866,6.043-5.893,0-8.184-3.485-8.184-6.977,0-5.252,4.092-7.414,10.912-7.414,2.8,0,4.419,0,6.186.048v-3.41c0-3.533-1.473-6.922-7.27-6.922-5.4,0-7.263,2.728-7.611,6.431h-1.03c.2-3.533,2.162-7.318,8.648-7.318,5.845,0,8.184,3.246,8.184,7.5Zm-.982-7.366c-1.671-.048-3.683-.048-6.234-.048-6.629,0-9.821,2.107-9.821,6.479,0,3.785,2.994,6.09,7.216,6.09,5.695,0,8.866-3.485,8.866-10.162Z" transform="translate(-12.897 -9.298)" fill="#1d1d1b"/>
    <path id="Path_26" data-name="Path 26" d="M94.237,47.806c0,2.408.055,5.6.055,6.677h-.982c-.055-.341-.15-3.628-.1-6.036a8.611,8.611,0,0,1-8.743,6.534c-3.41,0-8.443-1.575-8.443-9.187V30.107H77V46.189c0,4.024,2.114,7.857,7.5,7.857,5.054,0,8.689-3.41,8.689-10.558V30.08h1.03Z" transform="translate(-25.196 -9.565)" fill="#1d1d1b"/>
    <path id="Path_27" data-name="Path 27" d="M114.978,38.151c0-5.354,0-6.82-.048-8.348h.934c.1,1.228.1,4.024.1,7.073,1.228-4.276,5.306-7.5,9.234-7.666v.982c-5.013.2-9.234,5.211-9.234,10.858V54.206h-.982Z" transform="translate(-37.569 -9.288)" fill="#1d1d1b"/>
    <path id="Path_28" data-name="Path 28" d="M134.542,41.739c0,7.611,3.778,12.079,9.084,12.079,4.808,0,7.12-2.605,8.546-5.8h.982c-1.473,3.833-4.276,6.684-9.48,6.684-7.5,0-10.114-6.731-10.114-12.774,0-7.809,4.222-12.72,10.23-12.72,7.564,0,9.923,6.629,9.923,11.3a10.613,10.613,0,0,1-.048,1.228Zm18.217-.887c0-5.893-2.946-10.755-9.037-10.755-5.4,0-8.866,4.467-9.132,10.755Z" transform="translate(-43.493 -9.288)" fill="#1d1d1b"/>
    <path id="Path_29" data-name="Path 29" d="M188.072,48.718a42.285,42.285,0,0,0,.246,5.5h-.982a43.294,43.294,0,0,1-.246-5.456c-1.33,4.126-4.419,6.043-8.866,6.043-5.893,0-8.184-3.485-8.184-6.977,0-5.252,4.092-7.414,10.912-7.414,2.8,0,4.419,0,6.193.048v-3.41c0-3.533-1.473-6.922-7.27-6.922-5.4,0-7.27,2.728-7.611,6.431h-.982c.2-3.533,2.162-7.318,8.641-7.318,5.845,0,8.184,3.246,8.184,7.5Zm-1.009-7.366c-1.671-.048-3.683-.048-6.24-.048-6.629,0-9.821,2.107-9.821,6.479,0,3.785,2.994,6.09,7.223,6.09,5.695,0,8.866-3.485,8.866-10.162Z" transform="translate(-55.093 -9.298)" fill="#1d1d1b"/>
    <path id="Path_30" data-name="Path 30" d="M203.1,26.3h4.563V18.2h.982v8.1h6.09v.88h-6.09V45.651c0,2.653.546,4.617,3.587,4.617a6.138,6.138,0,0,0,1.964-.246v.88a5.722,5.722,0,0,1-2.046.3c-3.24,0-4.522-1.425-4.522-5.8V27.182H203.1Z" transform="translate(-65.606 -5.787)" fill="#1d1d1b"/>
    <path id="Path_31" data-name="Path 31" d="M245.411,41.943c0,8.184-4.317,12.911-10.8,12.911S224.05,49.9,224.05,42.038c0-8.45,4.774-12.958,10.8-12.958S245.411,33.8,245.411,41.943Zm-20.331.041c0,6.479,3.24,11.983,9.548,11.983s9.753-5.163,9.753-11.983c0-6.581-3.41-12.031-9.623-12.031C228.422,29.96,225.08,35.552,225.08,41.984Z" transform="translate(-72.267 -9.247)" fill="#1d1d1b"/>
  </g>
</svg>
